<svg width="158" height="110" viewBox="0 0 158 110" fill="none" xmlns="http://www.w3.org/2000/svg">
<path d="M67.176 51L65.224 43.576H63.592V51H58.472V28.984H66.216C67.816 28.984 69.032 29.2507 69.864 29.784C70.696 30.3173 71.2507 31.096 71.528 32.12C71.8053 33.144 71.944 34.5307 71.944 36.28C71.944 37.9013 71.8053 39.2347 71.528 40.28C71.272 41.304 70.7387 42.0827 69.928 42.616L72.456 51H67.176ZM64.936 39.32C65.5547 39.32 65.9813 39.2667 66.216 39.16C66.4507 39.032 66.6107 38.776 66.696 38.392C66.7813 37.9867 66.824 37.2933 66.824 36.312C66.824 35.3307 66.7813 34.648 66.696 34.264C66.632 33.88 66.472 33.6347 66.216 33.528C65.9813 33.4 65.5547 33.336 64.936 33.336H63.592V39.32H64.936ZM87.7848 28.984V41.176C87.7848 44.0987 87.6674 46.2107 87.4328 47.512C87.1981 48.8133 86.6114 49.7627 85.6728 50.36C84.7341 50.9573 83.1874 51.256 81.0328 51.256C78.8781 51.256 77.3314 50.9573 76.3928 50.36C75.4754 49.7627 74.8994 48.824 74.6648 47.544C74.4301 46.2427 74.3128 44.12 74.3128 41.176V28.984H79.4328V42.68C79.4328 44.152 79.4541 45.1547 79.4968 45.688C79.5608 46.2 79.6888 46.5307 79.8808 46.68C80.0941 46.8293 80.4781 46.904 81.0328 46.904C81.6088 46.904 81.9928 46.8293 82.1848 46.68C82.3981 46.5307 82.5261 46.2 82.5688 45.688C82.6328 45.1547 82.6648 44.152 82.6648 42.68V28.984H87.7848ZM100.101 51L99.429 46.904H95.013L94.341 51H89.285L93.541 28.984H100.997L105.253 51H100.101ZM97.317 33.656H97.093L95.685 42.648H98.725L97.317 33.656ZM116.158 51L111.87 40.152H111.742V51H106.846V28.984H111.774L115.646 38.68H115.838V28.984H120.702V51H116.158ZM130.252 42.168V37.976H136.524V50.552C135.756 50.7653 134.807 50.936 133.676 51.064C132.567 51.192 131.532 51.256 130.572 51.256C128.503 51.256 126.956 50.9467 125.932 50.328C124.93 49.7093 124.226 48.6213 123.82 47.064C123.436 45.5067 123.244 43.1493 123.244 39.992C123.244 36.8773 123.447 34.5413 123.852 32.984C124.279 31.4053 125.026 30.3067 126.092 29.688C127.159 29.048 128.77 28.728 130.924 28.728C131.842 28.728 132.834 28.792 133.9 28.92C134.967 29.048 135.82 29.208 136.46 29.4V33.432C135.778 33.3467 135.031 33.272 134.22 33.208C133.431 33.144 132.834 33.112 132.428 33.112C131.02 33.112 130.071 33.2187 129.58 33.432C129.09 33.6453 128.759 34.2 128.588 35.096C128.418 35.9707 128.332 37.6027 128.332 39.992C128.332 42.232 128.375 43.8107 128.46 44.728C128.567 45.6453 128.78 46.264 129.1 46.584C129.42 46.8827 129.964 47.032 130.732 47.032C131.095 47.032 131.49 47.0107 131.916 46.968V42.168H130.252Z" fill="white"/>
<path d="M58.472 80V57.984H69.448V62.368H63.592V66.688H68.648V71.072H63.592V75.616H69.448V80H58.472ZM72.0345 57.984H78.2425C80.5678 57.984 82.2212 58.3147 83.2025 58.976C84.2052 59.616 84.8238 60.6293 85.0585 62.016C85.2932 63.4027 85.4105 65.728 85.4105 68.992C85.4105 72.2347 85.2932 74.56 85.0585 75.968C84.8238 77.3547 84.2052 78.3787 83.2025 79.04C82.2212 79.68 80.5678 80 78.2425 80H72.0345V57.984ZM78.2105 75.616C78.9785 75.616 79.4798 75.52 79.7145 75.328C79.9705 75.1147 80.1305 74.6027 80.1945 73.792C80.2798 72.9813 80.3225 71.3813 80.3225 68.992C80.3225 66.624 80.2798 65.0347 80.1945 64.224C80.1305 63.392 79.9705 62.88 79.7145 62.688C79.4585 62.4747 78.9572 62.368 78.2105 62.368H77.1225V75.616H78.2105ZM101.316 57.984V70.176C101.316 73.0987 101.199 75.2107 100.964 76.512C100.729 77.8133 100.143 78.7627 99.204 79.36C98.2653 79.9573 96.7187 80.256 94.564 80.256C92.4093 80.256 90.8627 79.9573 89.924 79.36C89.0067 78.7627 88.4307 77.824 88.196 76.544C87.9613 75.2427 87.844 73.12 87.844 70.176V57.984H92.964V71.68C92.964 73.152 92.9853 74.1547 93.028 74.688C93.092 75.2 93.22 75.5307 93.412 75.68C93.6253 75.8293 94.0093 75.904 94.564 75.904C95.14 75.904 95.524 75.8293 95.716 75.68C95.9293 75.5307 96.0573 75.2 96.1 74.688C96.164 74.1547 96.196 73.152 96.196 71.68V57.984H101.316ZM113.056 80L110.016 71.072H109.248V80H104.128V57.984H109.248V66.592H110.016L113.152 57.984H118.464L114.048 68.512L118.528 80H113.056ZM129.632 80L128.96 75.904H124.544L123.872 80H118.816L123.072 57.984H130.528L134.784 80H129.632ZM126.848 62.656H126.624L125.216 71.648H128.256L126.848 62.656ZM142.074 80.256C141.071 80.256 140.036 80.2027 138.97 80.096C137.903 79.9893 136.975 79.8507 136.186 79.68V75.648C138.127 75.7973 139.61 75.872 140.634 75.872C141.338 75.872 141.86 75.8507 142.202 75.808C142.543 75.744 142.788 75.616 142.938 75.424C143.087 75.2747 143.183 75.072 143.226 74.816C143.268 74.56 143.29 74.1867 143.29 73.696C143.29 72.992 143.247 72.4907 143.161 72.192C143.098 71.8933 142.938 71.68 142.682 71.552C142.426 71.4027 141.988 71.2747 141.37 71.168L138.586 70.656C137.519 70.4853 136.783 69.888 136.378 68.864C135.972 67.8187 135.77 66.3573 135.77 64.48C135.77 62.6027 136.047 61.1733 136.602 60.192C137.156 59.2107 137.903 58.56 138.842 58.24C139.78 57.8987 140.975 57.728 142.426 57.728C144.047 57.728 145.775 57.92 147.61 58.304V62.336C146.522 62.1867 145.22 62.112 143.706 62.112C142.98 62.112 142.447 62.1333 142.106 62.176C141.764 62.2187 141.508 62.3147 141.338 62.464C141.167 62.592 141.05 62.7947 140.986 63.072C140.922 63.3493 140.89 63.7547 140.89 64.288C140.89 64.864 140.911 65.28 140.954 65.536C141.018 65.792 141.135 65.984 141.306 66.112C141.498 66.2187 141.807 66.3147 142.234 66.4L144.858 66.88C145.583 67.0293 146.191 67.264 146.682 67.584C147.194 67.8827 147.599 68.4267 147.898 69.216C148.239 70.112 148.41 71.36 148.41 72.96C148.41 75.072 148.143 76.6613 147.61 77.728C147.098 78.7733 146.404 79.456 145.53 79.776C144.655 80.096 143.503 80.256 142.074 80.256ZM150.691 80V57.984H155.811V80H150.691Z" fill="white"/>
<path fill-rule="evenodd" clip-rule="evenodd" d="M6.20108 1.42305L48.2825 25.4846C51.5923 27.3718 51.1869 29.2427 51.5923 30.6743V80.6846L7.14673 108.049C3.90638 109.432 2.63396 108.951 1 106.633V57.5666L44.4999 31.6179C45.8709 30.5944 46.1619 29.9922 44.4999 28.7871L8.09238 8.49997C6.53516 8.65153 6.19701 9.59052 6.20108 10.859V46.2435L1 48.6025V2.83845C2.58298 1.10816 3.74976 0.514016 6.20108 1.42305ZM43.5543 38.223L6.20108 59.4538V100.5C7.56705 101.454 8.28134 101.319 9.51086 100.5L45.9184 79.2692V38.223H43.5543Z" fill="white" stroke="white" stroke-width="0.5"/>
<path d="M14.5187 20.0056L34.0978 31.2215C34.0978 34.0256 33.5219 34.0255 30.6427 34.0255L11.6394 23.3704C10.8179 20.6609 12.2152 19.4448 14.5187 20.0056Z" fill="white" stroke="white" stroke-width="0.5"/>
<path d="M19.5865 33.3583L24.6537 36.6401C24.7064 38.6539 23.7814 39.1649 21.4688 39.6492L16.4015 36.3674C15.5984 33.6113 16.0504 32.763 19.5865 33.3583Z" fill="white" stroke="white" stroke-width="0.5"/>
</svg>
