<svg xmlns="http://www.w3.org/2000/svg" xmlns:xlink="http://www.w3.org/1999/xlink" width="500" zoomAndPan="magnify" viewBox="0 0 375 374.999991" height="500" preserveAspectRatio="xMidYMid meet" version="1.0"><defs><g/><clipPath id="37baaa685c"><path d="M 187.425781 195.828125 L 229.859375 195.828125 L 229.859375 222.957031 L 187.425781 222.957031 Z M 187.425781 195.828125 " clip-rule="nonzero"/></clipPath><clipPath id="40234fc1cf"><path d="M 192.441406 211.097656 L 231.605469 211.097656 L 231.605469 220.824219 L 192.441406 220.824219 Z M 192.441406 211.097656 " clip-rule="nonzero"/></clipPath><clipPath id="22a67f0e55"><path d="M 145.441406 194.78125 L 187.5 194.78125 L 187.5 222.957031 L 145.441406 222.957031 Z M 145.441406 194.78125 " clip-rule="nonzero"/></clipPath><clipPath id="3c39b201cc"><path d="M 143.105469 209 L 183 209 L 183 221 L 143.105469 221 Z M 143.105469 209 " clip-rule="nonzero"/></clipPath><clipPath id="126909bcb1"><path d="M 202 171.582031 L 206 171.582031 L 206 175 L 202 175 Z M 202 171.582031 " clip-rule="nonzero"/></clipPath><clipPath id="46df36195e"><path d="M 98 117.84375 L 278.625 117.84375 L 278.625 225 L 98 225 Z M 98 117.84375 " clip-rule="nonzero"/></clipPath></defs><rect x="-37.5" width="450" fill="#ffffff" y="-37.499999" height="449.999989" fill-opacity="1"/><rect x="-37.5" width="450" fill="#6148ff" y="-37.499999" height="449.999989" fill-opacity="1"/><g clip-path="url(#37baaa685c)"><path fill="#ffffff" d="M 217.015625 195.867188 L 229.847656 209.339844 C 201.289062 209.398438 187.429688 222.957031 187.429688 222.957031 C 187.429688 222.957031 194.4375 200.738281 217.015625 195.867188 " fill-opacity="1" fill-rule="nonzero"/></g><g clip-path="url(#40234fc1cf)"><path fill="#ffffff" d="M 231.871094 219.855469 C 213.070312 215.277344 199.347656 218.328125 192.449219 220.769531 C 198.058594 217.21875 208.382812 212.28125 223.582031 211.15625 L 231.871094 219.855469 " fill-opacity="1" fill-rule="nonzero"/></g><g clip-path="url(#22a67f0e55)"><path fill="#ffffff" d="M 158.8125 194.84375 L 145.515625 207.855469 C 174.054688 208.917969 187.429688 222.957031 187.429688 222.957031 C 187.429688 222.957031 181.207031 200.507812 158.8125 194.84375 " fill-opacity="1" fill-rule="nonzero"/></g><g clip-path="url(#3c39b201cc)"><path fill="#ffffff" d="M 143.121094 218.296875 C 162.070312 214.378906 175.683594 217.910156 182.488281 220.59375 C 177.007812 216.847656 166.863281 211.550781 151.710938 209.890625 L 143.121094 218.296875 " fill-opacity="1" fill-rule="nonzero"/></g><path fill="#ffffff" d="M 220.007812 188.042969 L 218.164062 192.859375 C 206.246094 195.273438 198.453125 202.804688 194.011719 208.707031 C 197.765625 201.875 205.664062 191.441406 220.007812 188.042969 " fill-opacity="1" fill-rule="nonzero"/><path fill="#ffffff" d="M 155.335938 186.71875 L 157.019531 191.628906 C 169.28125 194.300781 177.03125 202.300781 181.351562 208.484375 C 177.777344 201.398438 170.042969 190.4375 155.335938 186.71875 " fill-opacity="1" fill-rule="nonzero"/><path fill="#ffffff" d="M 187.765625 203.878906 C 187.765625 203.878906 181.097656 192.035156 171.867188 189.214844 C 171.867188 189.214844 185.214844 200.71875 187.453125 221.636719 C 190.421875 200.808594 204.167969 189.78125 204.167969 189.78125 C 194.84375 192.277344 187.765625 203.878906 187.765625 203.878906 " fill-opacity="1" fill-rule="nonzero"/><path fill="#ffffff" d="M 192.296875 192.601562 C 192.34375 189.957031 190.441406 187.78125 188.046875 187.738281 C 185.65625 187.695312 183.675781 189.804688 183.628906 192.449219 C 183.582031 195.09375 185.488281 197.273438 187.878906 197.3125 C 190.273438 197.355469 192.25 195.246094 192.296875 192.601562 " fill-opacity="1" fill-rule="nonzero"/><path fill="#ffffff" d="M 193.71875 176.753906 L 185.886719 176.617188 L 185.746094 184.453125 L 193.582031 184.589844 L 193.71875 176.753906 " fill-opacity="1" fill-rule="nonzero"/><path fill="#ffffff" d="M 197.707031 172.90625 L 193.789062 172.839844 L 193.71875 176.753906 L 197.636719 176.824219 L 197.707031 172.90625 " fill-opacity="1" fill-rule="nonzero"/><path fill="#ffffff" d="M 205.441406 182.339844 L 201.523438 182.269531 L 201.453125 186.1875 L 205.371094 186.257812 L 205.441406 182.339844 " fill-opacity="1" fill-rule="nonzero"/><path fill="#ffffff" d="M 198.507812 180.757812 L 196.625 180.726562 L 196.59375 182.609375 L 198.476562 182.640625 L 198.507812 180.757812 " fill-opacity="1" fill-rule="nonzero"/><path fill="#ffffff" d="M 216.960938 177.726562 L 213.347656 177.660156 L 213.28125 181.273438 L 216.894531 181.339844 L 216.960938 177.726562 " fill-opacity="1" fill-rule="nonzero"/><path fill="#ffffff" d="M 210.109375 185.984375 L 208.226562 185.953125 L 208.195312 187.835938 L 210.078125 187.867188 L 210.109375 185.984375 " fill-opacity="1" fill-rule="nonzero"/><g clip-path="url(#126909bcb1)"><path fill="#ffffff" d="M 205.476562 171.632812 L 202.652344 171.582031 L 202.601562 174.40625 L 205.425781 174.457031 L 205.476562 171.632812 " fill-opacity="1" fill-rule="nonzero"/></g><path fill="#ffffff" d="M 208.835938 175.59375 L 205.984375 175.546875 L 205.933594 178.398438 L 208.789062 178.449219 L 208.835938 175.59375 " fill-opacity="1" fill-rule="nonzero"/><g clip-path="url(#46df36195e)"><path fill="#ffffff" d="M 193.144531 117.84375 L 154.816406 152.039062 L 127.761719 178.71875 L 110.097656 197.132812 L 98.074219 211.035156 L 114.234375 199.761719 L 127.007812 190.367188 L 131.894531 224.941406 L 137.90625 182.476562 L 168.34375 157.675781 L 192.019531 137.382812 L 204.417969 150.535156 L 223.207031 169.324219 L 237.113281 182.851562 L 242.75 224.5625 L 247.257812 192.246094 L 262.289062 205.773438 L 269.429688 211.789062 L 278.074219 218.925781 L 264.542969 200.136719 L 245.378906 176.464844 L 218.324219 144.898438 Z M 193.144531 117.84375 " fill-opacity="1" fill-rule="nonzero"/></g><g fill="#ffffff" fill-opacity="1"><g transform="translate(97.88808, 258.112893)"><g><path d="M 10.265625 0 L 8.1875 -7.4375 L 5.890625 -7.4375 L 5.890625 0 L 1.609375 0 L 1.609375 -21.328125 L 8.796875 -21.328125 C 10.328125 -21.328125 11.476562 -21.066406 12.25 -20.546875 C 13.03125 -20.035156 13.554688 -19.289062 13.828125 -18.3125 C 14.097656 -17.34375 14.234375 -16.046875 14.234375 -14.421875 C 14.234375 -12.867188 14.09375 -11.582031 13.8125 -10.5625 C 13.53125 -9.550781 12.96875 -8.789062 12.125 -8.28125 L 14.6875 0 Z M 7.78125 -11.125 C 8.457031 -11.125 8.941406 -11.203125 9.234375 -11.359375 C 9.523438 -11.515625 9.71875 -11.800781 9.8125 -12.21875 C 9.90625 -12.644531 9.953125 -13.367188 9.953125 -14.390625 C 9.953125 -15.378906 9.90625 -16.078125 9.8125 -16.484375 C 9.71875 -16.898438 9.523438 -17.1875 9.234375 -17.34375 C 8.941406 -17.5 8.457031 -17.578125 7.78125 -17.578125 L 5.890625 -17.578125 L 5.890625 -11.125 Z M 7.78125 -11.125 "/></g></g></g><g fill="#ffffff" fill-opacity="1"><g transform="translate(113.200171, 258.112893)"><g><path d="M 14.203125 -21.328125 L 14.203125 -9.453125 C 14.203125 -6.640625 14.082031 -4.597656 13.84375 -3.328125 C 13.601562 -2.054688 13.039062 -1.140625 12.15625 -0.578125 C 11.28125 -0.0234375 9.84375 0.25 7.84375 0.25 C 5.84375 0.25 4.398438 -0.0234375 3.515625 -0.578125 C 2.640625 -1.140625 2.082031 -2.054688 1.84375 -3.328125 C 1.601562 -4.597656 1.484375 -6.640625 1.484375 -9.453125 L 1.484375 -21.328125 L 5.734375 -21.328125 L 5.734375 -8.03125 C 5.734375 -6.519531 5.769531 -5.476562 5.84375 -4.90625 C 5.914062 -4.34375 6.085938 -3.96875 6.359375 -3.78125 C 6.640625 -3.59375 7.132812 -3.5 7.84375 -3.5 C 8.539062 -3.5 9.023438 -3.59375 9.296875 -3.78125 C 9.566406 -3.96875 9.738281 -4.335938 9.8125 -4.890625 C 9.882812 -5.453125 9.921875 -6.5 9.921875 -8.03125 L 9.921875 -21.328125 Z M 14.203125 -21.328125 "/></g></g></g><g fill="#ffffff" fill-opacity="1"><g transform="translate(128.884217, 258.112893)"><g><path d="M 10.9375 0 L 10.109375 -4.375 L 5.328125 -4.375 L 4.5 0 L 0.25 0 L 4.65625 -21.328125 L 10.875 -21.328125 L 15.28125 0 Z M 7.8125 -17.296875 L 7.625 -17.296875 L 5.953125 -8.0625 L 9.453125 -8.0625 Z M 7.8125 -17.296875 "/></g></g></g><g fill="#ffffff" fill-opacity="1"><g transform="translate(144.413288, 258.112893)"><g><path d="M 10.75 0 L 5.796875 -11.6875 L 5.671875 -11.6875 L 5.671875 0 L 1.609375 0 L 1.609375 -21.328125 L 5.734375 -21.328125 L 10.359375 -10.546875 L 10.515625 -10.546875 L 10.515625 -21.328125 L 14.59375 -21.328125 L 14.59375 0 Z M 10.75 0 "/></g></g></g><g fill="#ffffff" fill-opacity="1"><g transform="translate(160.624266, 258.112893)"><g><path d="M 7.78125 -8.734375 L 7.78125 -12.40625 L 13.640625 -12.40625 L 13.640625 -0.40625 C 12.921875 -0.21875 12.039062 -0.0625 11 0.0625 C 9.96875 0.1875 9.007812 0.25 8.125 0.25 C 6.15625 0.25 4.691406 -0.0390625 3.734375 -0.625 C 2.773438 -1.21875 2.113281 -2.273438 1.75 -3.796875 C 1.382812 -5.316406 1.203125 -7.601562 1.203125 -10.65625 C 1.203125 -13.695312 1.394531 -15.976562 1.78125 -17.5 C 2.164062 -19.019531 2.863281 -20.078125 3.875 -20.671875 C 4.882812 -21.273438 6.40625 -21.578125 8.4375 -21.578125 C 9.257812 -21.578125 10.15625 -21.515625 11.125 -21.390625 C 12.101562 -21.265625 12.929688 -21.117188 13.609375 -20.953125 L 13.609375 -17.453125 C 11.828125 -17.703125 10.535156 -17.828125 9.734375 -17.828125 C 8.328125 -17.828125 7.359375 -17.710938 6.828125 -17.484375 C 6.304688 -17.253906 5.945312 -16.671875 5.75 -15.734375 C 5.550781 -14.796875 5.453125 -13.101562 5.453125 -10.65625 C 5.453125 -8.382812 5.515625 -6.769531 5.640625 -5.8125 C 5.765625 -4.851562 6.003906 -4.207031 6.359375 -3.875 C 6.722656 -3.539062 7.34375 -3.375 8.21875 -3.375 C 8.40625 -3.375 8.898438 -3.40625 9.703125 -3.46875 L 9.703125 -8.734375 Z M 7.78125 -8.734375 "/></g></g></g><g fill="#ffffff" fill-opacity="1"><g transform="translate(175.719389, 258.112893)"><g/></g></g><g fill="#ffffff" fill-opacity="1"><g transform="translate(181.267701, 258.112893)"><g><path d="M 1.609375 0 L 1.609375 -21.328125 L 11.96875 -21.328125 L 11.96875 -17.578125 L 5.890625 -17.578125 L 5.890625 -12.640625 L 11.125 -12.640625 L 11.125 -8.890625 L 5.890625 -8.890625 L 5.890625 -3.75 L 11.96875 -3.75 L 11.96875 0 Z M 1.609375 0 "/></g></g></g><g fill="#ffffff" fill-opacity="1"><g transform="translate(194.317078, 258.112893)"><g><path d="M 1.609375 -21.328125 L 7.375 -21.328125 C 9.5625 -21.328125 11.125 -21.019531 12.0625 -20.40625 C 13.007812 -19.800781 13.597656 -18.820312 13.828125 -17.46875 C 14.054688 -16.113281 14.171875 -13.84375 14.171875 -10.65625 C 14.171875 -7.476562 14.054688 -5.210938 13.828125 -3.859375 C 13.597656 -2.503906 13.007812 -1.519531 12.0625 -0.90625 C 11.125 -0.300781 9.5625 0 7.375 0 L 1.609375 0 Z M 7.3125 -3.75 C 8.226562 -3.75 8.84375 -3.859375 9.15625 -4.078125 C 9.476562 -4.296875 9.6875 -4.835938 9.78125 -5.703125 C 9.875 -6.566406 9.921875 -8.21875 9.921875 -10.65625 C 9.921875 -13.082031 9.867188 -14.734375 9.765625 -15.609375 C 9.660156 -16.484375 9.453125 -17.03125 9.140625 -17.25 C 8.835938 -17.46875 8.226562 -17.578125 7.3125 -17.578125 L 5.859375 -17.578125 L 5.859375 -3.75 Z M 7.3125 -3.75 "/></g></g></g><g fill="#ffffff" fill-opacity="1"><g transform="translate(209.691161, 258.112893)"><g><path d="M 14.203125 -21.328125 L 14.203125 -9.453125 C 14.203125 -6.640625 14.082031 -4.597656 13.84375 -3.328125 C 13.601562 -2.054688 13.039062 -1.140625 12.15625 -0.578125 C 11.28125 -0.0234375 9.84375 0.25 7.84375 0.25 C 5.84375 0.25 4.398438 -0.0234375 3.515625 -0.578125 C 2.640625 -1.140625 2.082031 -2.054688 1.84375 -3.328125 C 1.601562 -4.597656 1.484375 -6.640625 1.484375 -9.453125 L 1.484375 -21.328125 L 5.734375 -21.328125 L 5.734375 -8.03125 C 5.734375 -6.519531 5.769531 -5.476562 5.84375 -4.90625 C 5.914062 -4.34375 6.085938 -3.96875 6.359375 -3.78125 C 6.640625 -3.59375 7.132812 -3.5 7.84375 -3.5 C 8.539062 -3.5 9.023438 -3.59375 9.296875 -3.78125 C 9.566406 -3.96875 9.738281 -4.335938 9.8125 -4.890625 C 9.882812 -5.453125 9.921875 -6.5 9.921875 -8.03125 L 9.921875 -21.328125 Z M 14.203125 -21.328125 "/></g></g></g><g fill="#ffffff" fill-opacity="1"><g transform="translate(225.375208, 258.112893)"><g><path d="M 10.421875 0 L 7.0625 -8.890625 L 5.890625 -8.890625 L 5.890625 0 L 1.609375 0 L 1.609375 -21.328125 L 5.890625 -21.328125 L 5.890625 -12.734375 L 7.0625 -12.734375 L 10.515625 -21.328125 L 14.90625 -21.328125 L 10.484375 -11.125 L 15 0 Z M 10.421875 0 "/></g></g></g><g fill="#ffffff" fill-opacity="1"><g transform="translate(240.625307, 258.112893)"><g><path d="M 10.9375 0 L 10.109375 -4.375 L 5.328125 -4.375 L 4.5 0 L 0.25 0 L 4.65625 -21.328125 L 10.875 -21.328125 L 15.28125 0 Z M 7.8125 -17.296875 L 7.625 -17.296875 L 5.953125 -8.0625 L 9.453125 -8.0625 Z M 7.8125 -17.296875 "/></g></g></g><g fill="#ffffff" fill-opacity="1"><g transform="translate(256.154378, 258.112893)"><g><path d="M 6.84375 0.25 C 5.976562 0.25 5.035156 0.203125 4.015625 0.109375 C 2.992188 0.015625 2.085938 -0.113281 1.296875 -0.28125 L 1.296875 -3.75 C 3.410156 -3.582031 4.867188 -3.5 5.671875 -3.5 C 6.398438 -3.5 6.945312 -3.539062 7.3125 -3.625 C 7.6875 -3.707031 7.96875 -3.851562 8.15625 -4.0625 C 8.320312 -4.226562 8.429688 -4.457031 8.484375 -4.75 C 8.535156 -5.050781 8.5625 -5.484375 8.5625 -6.046875 C 8.5625 -6.804688 8.519531 -7.347656 8.4375 -7.671875 C 8.351562 -7.992188 8.179688 -8.234375 7.921875 -8.390625 C 7.660156 -8.546875 7.210938 -8.679688 6.578125 -8.796875 L 3.65625 -9.328125 C 2.625 -9.515625 1.910156 -10.082031 1.515625 -11.03125 C 1.128906 -11.988281 0.9375 -13.363281 0.9375 -15.15625 C 0.9375 -16.914062 1.1875 -18.257812 1.6875 -19.1875 C 2.195312 -20.113281 2.894531 -20.742188 3.78125 -21.078125 C 4.664062 -21.410156 5.789062 -21.578125 7.15625 -21.578125 C 8.113281 -21.578125 9.03125 -21.515625 9.90625 -21.390625 C 10.78125 -21.265625 11.5 -21.140625 12.0625 -21.015625 L 12.0625 -17.546875 C 10.945312 -17.734375 9.695312 -17.828125 8.3125 -17.828125 C 7.5625 -17.828125 6.984375 -17.796875 6.578125 -17.734375 C 6.179688 -17.671875 5.890625 -17.554688 5.703125 -17.390625 C 5.472656 -17.222656 5.328125 -16.984375 5.265625 -16.671875 C 5.203125 -16.367188 5.171875 -15.914062 5.171875 -15.3125 C 5.171875 -14.675781 5.207031 -14.210938 5.28125 -13.921875 C 5.351562 -13.628906 5.484375 -13.421875 5.671875 -13.296875 C 5.859375 -13.171875 6.179688 -13.066406 6.640625 -12.984375 L 9.359375 -12.5 C 10.085938 -12.394531 10.703125 -12.171875 11.203125 -11.828125 C 11.710938 -11.484375 12.113281 -10.921875 12.40625 -10.140625 C 12.6875 -9.304688 12.828125 -8.140625 12.828125 -6.640625 C 12.828125 -4.671875 12.585938 -3.191406 12.109375 -2.203125 C 11.640625 -1.210938 10.984375 -0.554688 10.140625 -0.234375 C 9.304688 0.0859375 8.207031 0.25 6.84375 0.25 Z M 6.84375 0.25 "/></g></g></g><g fill="#ffffff" fill-opacity="1"><g transform="translate(269.885673, 258.112893)"><g><path d="M 1.640625 0 L 1.640625 -21.328125 L 5.890625 -21.328125 L 5.890625 0 Z M 1.640625 0 "/></g></g></g></svg>