<svg width="241" height="188" viewBox="0 0 241 188" fill="none" xmlns="http://www.w3.org/2000/svg">
<mask id="mask0_2034_958" style="mask-type:luminance" maskUnits="userSpaceOnUse" x="119" y="103" width="57" height="38">
<path d="M119.234 103.979H175.813V140.151H119.234V103.979Z" fill="white"/>
</mask>
<g mask="url(#mask0_2034_958)">
<path d="M158.688 104.031L175.797 121.995C137.719 122.073 119.24 140.151 119.24 140.151C119.24 140.151 128.583 110.526 158.688 104.031Z" fill="white"/>
</g>
<mask id="mask1_2034_958" style="mask-type:luminance" maskUnits="userSpaceOnUse" x="125" y="124" width="54" height="14">
<path d="M125.922 124.339H178.141V137.307H125.922V124.339Z" fill="white"/>
</mask>
<g mask="url(#mask1_2034_958)">
<path d="M178.495 136.016C153.427 129.912 135.13 133.979 125.932 137.234C133.411 132.5 147.177 125.917 167.443 124.417L178.495 136.016Z" fill="white"/>
</g>
<mask id="mask2_2034_958" style="mask-type:luminance" maskUnits="userSpaceOnUse" x="63" y="102" width="57" height="39">
<path d="M63.2552 102.583H119.333V140.151H63.2552V102.583Z" fill="white"/>
</mask>
<g mask="url(#mask2_2034_958)">
<path d="M81.0834 102.667L63.3542 120.016C101.406 121.432 119.24 140.151 119.24 140.151C119.24 140.151 110.943 110.219 81.0834 102.667Z" fill="white"/>
</g>
<mask id="mask3_2034_958" style="mask-type:luminance" maskUnits="userSpaceOnUse" x="60" y="121" width="54" height="17">
<path d="M60.1407 121.542H113.333V137.542H60.1407V121.542Z" fill="white"/>
</mask>
<g mask="url(#mask3_2034_958)">
<path d="M60.1615 133.938C85.4271 128.714 103.578 133.422 112.651 137C105.344 132.005 91.8177 124.943 71.6146 122.729L60.1615 133.938Z" fill="white"/>
</g>
<path d="M162.677 93.599L160.219 100.021C144.328 103.24 133.937 113.281 128.016 121.151C133.021 112.042 143.552 98.1302 162.677 93.599Z" fill="white"/>
<path d="M76.4479 91.8334L78.6927 98.3802C95.0417 101.943 105.375 112.609 111.135 120.854C106.37 111.406 96.0573 96.7917 76.4479 91.8334Z" fill="white"/>
<path d="M119.688 114.714C119.688 114.714 110.797 98.9219 98.4896 95.1615C98.4896 95.1615 116.286 110.5 119.271 138.391C123.229 110.62 141.557 95.9167 141.557 95.9167C129.125 99.2448 119.688 114.714 119.688 114.714Z" fill="white"/>
<path d="M125.729 99.6771C125.792 96.1511 123.255 93.25 120.063 93.1928C116.875 93.1355 114.234 95.948 114.172 99.474C114.109 103 116.651 105.906 119.839 105.958C123.031 106.016 125.667 103.203 125.729 99.6771Z" fill="white"/>
<path d="M127.625 78.5469L117.182 78.3646L116.995 88.8125L127.443 88.9948L127.625 78.5469Z" fill="white"/>
<path d="M132.943 73.4167L127.719 73.3281L127.625 78.5469L132.849 78.6406L132.943 73.4167Z" fill="white"/>
<path d="M143.255 85.9948L138.031 85.901L137.938 91.125L143.161 91.2187L143.255 85.9948Z" fill="white"/>
<path d="M134.01 83.8854L131.5 83.8438L131.458 86.3542L133.969 86.3958L134.01 83.8854Z" fill="white"/>
<path d="M158.615 79.8438L153.797 79.7552L153.708 84.573L158.526 84.6615L158.615 79.8438Z" fill="white"/>
<path d="M149.479 90.8542L146.969 90.8125L146.927 93.3229L149.438 93.3646L149.479 90.8542Z" fill="white"/>
<mask id="mask4_2034_958" style="mask-type:luminance" maskUnits="userSpaceOnUse" x="138" y="71" width="6" height="6">
<path d="M138.667 71.651H144V76.2083H138.667V71.651Z" fill="white"/>
</mask>
<g mask="url(#mask4_2034_958)">
<path d="M143.302 71.7187L139.537 71.651L139.469 75.4166L143.234 75.4843L143.302 71.7187Z" fill="white"/>
</g>
<path d="M147.781 77L143.979 76.9375L143.911 80.7396L147.719 80.8073L147.781 77Z" fill="white"/>
<mask id="mask5_2034_958" style="mask-type:luminance" maskUnits="userSpaceOnUse" x="0" y="0" width="241" height="143">
<path d="M0 0H240.833V142.875H0V0Z" fill="white"/>
</mask>
<g mask="url(#mask5_2034_958)">
<path d="M126.844 0L75.7448 45.5L39.6771 81L16.1302 105.5L0.0989685 124L21.6406 109L38.6719 96.5L45.1875 142.5L53.2031 86L93.7813 53L125.344 26L141.875 43.5L166.922 68.5L185.458 86.5L192.974 142L198.984 99L219.026 117L228.542 125L240.068 134.5L222.031 109.5L196.479 78L160.411 36L126.844 0Z" fill="white"/>
</g>
<path d="M13.5204 187.026L10.7495 177.109H7.68703V187.026H1.9787V158.588H11.562C13.6037 158.588 15.1349 158.937 16.1662 159.63C17.2079 160.312 17.9058 161.307 18.2704 162.609C18.6297 163.901 18.812 165.63 18.812 167.796C18.812 169.869 18.6245 171.583 18.2495 172.942C17.8745 174.291 17.1245 175.307 15.9995 175.984L19.4162 187.026H13.5204ZM10.2079 172.192C11.1089 172.192 11.7547 172.088 12.1454 171.88C12.5308 171.671 12.7912 171.291 12.9162 170.734C13.0412 170.166 13.1037 169.203 13.1037 167.838C13.1037 166.52 13.0412 165.588 12.9162 165.046C12.7912 164.494 12.5308 164.109 12.1454 163.901C11.7547 163.692 11.1089 163.588 10.2079 163.588H7.68703V172.192H10.2079Z" fill="white"/>
<path d="M39.1865 158.588V174.421C39.1865 178.171 39.025 180.895 38.7073 182.588C38.3844 184.286 37.6344 185.505 36.4573 186.255C35.2906 186.994 33.374 187.359 30.7073 187.359C28.0406 187.359 26.1136 186.994 24.9365 186.255C23.7698 185.505 23.025 184.286 22.7073 182.588C22.3844 180.895 22.2281 178.171 22.2281 174.421V158.588H27.8948V176.317C27.8948 178.333 27.9417 179.723 28.0406 180.484C28.1344 181.234 28.3636 181.734 28.7281 181.984C29.1031 182.234 29.7594 182.359 30.7073 182.359C31.6344 182.359 32.2802 182.234 32.6448 181.984C33.0042 181.734 33.2334 181.244 33.3323 180.505C33.4261 179.755 33.4781 178.359 33.4781 176.317V158.588H39.1865Z" fill="white"/>
<path d="M55.7444 187.026L54.6402 181.192H48.2652L47.1611 187.026H41.4944L47.3694 158.588H55.6611L61.5361 187.026H55.7444ZM51.5777 163.963H51.3277L49.0986 176.276H53.7652L51.5777 163.963Z" fill="white"/>
<path d="M76.1998 187.026L69.5957 171.442H69.429V187.026H64.0123V158.588H69.5123L75.679 172.963H75.8873V158.588H81.3248V187.026H76.1998Z" fill="white"/>
<path d="M93.8561 175.38V170.484H101.669V186.484C100.71 186.734 99.5332 186.942 98.1478 187.109C96.7728 187.275 95.4915 187.359 94.3144 187.359C91.6894 187.359 89.7363 186.973 88.4603 186.192C87.179 185.4 86.2988 183.994 85.8144 181.963C85.3248 179.937 85.0853 176.89 85.0853 172.817C85.0853 168.765 85.3405 165.723 85.8561 163.692C86.3665 161.666 87.2988 160.255 88.6478 159.463C89.9915 158.661 92.0228 158.255 94.7311 158.255C95.8248 158.255 97.0228 158.338 98.3144 158.505C99.6165 158.671 100.721 158.869 101.627 159.088V163.755C99.2519 163.421 97.528 163.255 96.4603 163.255C94.5853 163.255 93.2936 163.411 92.5853 163.713C91.8874 164.02 91.4082 164.796 91.1478 166.046C90.8821 167.296 90.7519 169.557 90.7519 172.817C90.7519 175.848 90.8353 177.999 91.0019 179.275C91.1686 180.557 91.4863 181.416 91.9603 181.859C92.4446 182.307 93.2728 182.525 94.4394 182.525C94.6894 182.525 95.3457 182.484 96.4186 182.4V175.38H93.8561Z" fill="white"/>
<path d="M113.166 187.026V158.588H126.979V163.588H118.875V170.171H125.854V175.171H118.875V182.026H126.979V187.026H113.166Z" fill="white"/>
<path d="M130.565 158.588H138.253C141.169 158.588 143.253 158.999 144.503 159.817C145.763 160.624 146.55 161.932 146.857 163.734C147.159 165.541 147.315 168.567 147.315 172.817C147.315 177.057 147.159 180.078 146.857 181.88C146.55 183.687 145.763 184.999 144.503 185.817C143.253 186.624 141.169 187.026 138.253 187.026H130.565V158.588ZM138.169 182.026C139.388 182.026 140.211 181.88 140.628 181.588C141.055 181.296 141.336 180.578 141.461 179.421C141.586 178.27 141.649 176.067 141.649 172.817C141.649 169.583 141.576 167.38 141.44 166.213C141.3 165.046 141.024 164.317 140.607 164.026C140.201 163.734 139.388 163.588 138.169 163.588H136.232V182.026H138.169Z" fill="white"/>
<path d="M167.856 158.588V174.421C167.856 178.171 167.694 180.895 167.377 182.588C167.054 184.286 166.304 185.505 165.127 186.255C163.96 186.994 162.043 187.359 159.377 187.359C156.71 187.359 154.783 186.994 153.606 186.255C152.439 185.505 151.694 184.286 151.377 182.588C151.054 180.895 150.897 178.171 150.897 174.421V158.588H156.564V176.317C156.564 178.333 156.611 179.723 156.71 180.484C156.804 181.234 157.033 181.734 157.397 181.984C157.772 182.234 158.429 182.359 159.377 182.359C160.304 182.359 160.95 182.234 161.314 181.984C161.674 181.734 161.903 181.244 162.002 180.505C162.095 179.755 162.147 178.359 162.147 176.317V158.588H167.856Z" fill="white"/>
<path d="M183.726 187.026L179.247 175.171H177.685V187.026H171.976V158.588H177.685V170.046H179.247L183.851 158.588H189.705L183.81 172.192L189.83 187.026H183.726Z" fill="white"/>
<path d="M204.747 187.026L203.643 181.192H197.268L196.164 187.026H190.497L196.372 158.588H204.664L210.539 187.026H204.747ZM200.581 163.963H200.331L198.101 176.276H202.768L200.581 163.963Z" fill="white"/>
<path d="M219.994 187.359C218.838 187.359 217.583 187.296 216.223 187.171C214.859 187.046 213.651 186.874 212.598 186.65V182.025C215.416 182.249 217.359 182.359 218.432 182.359C219.401 182.359 220.13 182.307 220.619 182.192C221.119 182.083 221.494 181.89 221.744 181.609C221.963 181.39 222.109 181.083 222.182 180.692C222.249 180.291 222.286 179.713 222.286 178.963C222.286 177.953 222.229 177.229 222.119 176.796C222.005 176.369 221.776 176.046 221.432 175.838C221.083 175.63 220.484 175.453 219.64 175.296L215.744 174.588C214.369 174.338 213.416 173.583 212.89 172.317C212.374 171.041 212.119 169.208 212.119 166.817C212.119 164.473 212.453 162.682 213.119 161.442C213.796 160.208 214.729 159.369 215.911 158.921C217.088 158.479 218.588 158.255 220.411 158.255C221.687 158.255 222.911 158.338 224.078 158.505C225.244 158.671 226.203 158.838 226.953 159.005V163.63C225.463 163.38 223.796 163.255 221.953 163.255C220.953 163.255 220.182 163.296 219.64 163.38C219.109 163.463 218.723 163.619 218.473 163.838C218.166 164.062 217.973 164.38 217.89 164.796C217.807 165.203 217.765 165.807 217.765 166.609C217.765 167.458 217.812 168.078 217.911 168.463C218.005 168.854 218.182 169.13 218.432 169.296C218.682 169.463 219.109 169.604 219.723 169.713L223.348 170.359C224.317 170.499 225.14 170.796 225.807 171.255C226.484 171.713 227.02 172.463 227.411 173.505C227.786 174.619 227.973 176.171 227.973 178.171C227.973 180.796 227.651 182.77 227.015 184.088C226.39 185.411 225.515 186.286 224.39 186.713C223.276 187.14 221.812 187.359 219.994 187.359Z" fill="white"/>
<path d="M231.365 187.026V158.588H237.032V187.026H231.365Z" fill="white"/>
</svg>
