<svg width="17" height="16" viewBox="0 0 17 16" fill="none" xmlns="http://www.w3.org/2000/svg">
<path d="M9.16621 1.35327V2.69994C12.0929 3.05994 14.1662 5.71994 13.8062 8.6466C13.4995 11.0733 11.5929 12.9999 9.16621 13.2866V14.6199C12.8329 14.2533 15.4995 10.9999 15.1329 7.33327C14.8329 4.1666 12.3195 1.6666 9.16621 1.35327ZM7.83288 1.37327C6.53288 1.49994 5.29288 1.99994 4.27954 2.83994L5.23288 3.8266C5.97954 3.2266 6.87954 2.83994 7.83288 2.7066V1.37327ZM3.33954 3.77994C2.50598 4.7915 1.99301 6.02866 1.86621 7.33327H3.19954C3.32621 6.3866 3.69954 5.4866 4.29288 4.73327L3.33954 3.77994ZM10.8329 5.6666L7.57954 8.91994L6.16621 7.5066L5.45954 8.21327L7.57954 10.3333L11.5395 6.37327L10.8329 5.6666ZM1.87288 8.6666C2.00621 9.97327 2.51954 11.2066 3.34621 12.2199L4.29288 11.2666C3.70416 10.513 3.32885 9.615 3.20621 8.6666H1.87288ZM5.23288 12.2466L4.27954 13.1599C5.2894 14.0017 6.52572 14.526 7.83288 14.6666V13.3333C6.88448 13.2106 5.98648 12.8353 5.23288 12.2466Z" fill="#73CA5C"/>
</svg>
